<svg width="120" height="72" viewBox="0 0 120 72" fill="none" xmlns="http://www.w3.org/2000/svg">
<g clip-path="url(#clip0_921_23537)">
<path d="M20.1882 70.5847C20.5555 71.0397 21.1102 71.3043 21.6965 71.3043H118.065C119.134 71.3043 120 70.4416 120 69.3772V1.92714C120 0.862811 119.134 0 118.065 0H1.85263C0.829449 0 0 0.825876 0 1.84464V44.9066C0 45.3459 0.150694 45.7719 0.42712 46.1143L20.1882 70.5847Z" fill="#FFCB06"/>
<path d="M83.6858 36.699C84.0802 36.3503 84.3095 35.8527 84.3177 35.3276L84.6353 14.928C84.6394 14.6648 84.8548 14.4536 85.1191 14.4536H104.3C104.567 14.4536 104.784 14.6694 104.784 14.9354V41.9271C104.784 42.1932 104.567 42.4089 104.3 42.4089H87.2125C86.3926 42.4089 85.9442 43.3607 86.4684 43.9885L87.6781 45.4372C87.7503 45.5237 87.7899 45.6327 87.7899 45.7452V56.3572C87.7899 56.6233 87.5732 56.8389 87.306 56.8389H72.7611C72.614 56.8389 72.4749 56.7724 72.383 56.6579L47.6684 25.8551C47.5999 25.7697 47.5625 25.6637 47.5625 25.5544V14.9354C47.5625 14.6694 47.7792 14.4536 48.0464 14.4536H62.873C63.0192 14.4536 63.1575 14.5194 63.2493 14.6326L80.9736 36.4757C81.6481 37.3069 82.8833 37.4086 83.6858 36.699Z" fill="#1D1D1A"/>
<path d="M15.4844 14.963C15.4844 14.6968 15.7011 14.4812 15.9682 14.4812H30.4556C30.6026 14.4812 30.7416 14.5477 30.8333 14.6619L55.6058 45.4666C55.6745 45.5521 55.712 45.6583 55.712 45.7678V56.3968C55.712 56.6629 55.4954 56.8786 55.2281 56.8786H40.7407C40.5938 56.8786 40.4548 56.8122 40.363 56.698L15.5905 25.8932C15.5218 25.8077 15.4844 25.7015 15.4844 25.5921V14.963Z" fill="#1D1D1A"/>
</g>
<defs>
<clipPath id="clip0_921_23537">
<rect width="120" height="71.4" fill="white"/>
</clipPath>
</defs>
</svg>
